<svg width="25" height="25" viewBox="0 0 25 25" fill="none" xmlns="http://www.w3.org/2000/svg">
<g clip-path="url(#clip0_345_851)">
<path d="M18.9583 24.9999H3.95833C1.77083 24.9999 0 23.2291 0 21.0416V6.04159C0 3.85409 1.77083 2.08325 3.95833 2.08325H11.4583C12.0833 2.08325 12.5 2.49992 12.5 3.12492C12.5 3.74992 12.0833 4.16659 11.4583 4.16659H3.95833C2.91667 4.16659 2.08333 4.99992 2.08333 6.04159V20.9374C2.08333 21.9791 2.91667 22.8124 3.95833 22.8124H18.8542C19.8958 22.8124 20.7292 21.9791 20.7292 20.9374V13.5416C20.7292 12.9166 21.1458 12.4999 21.7708 12.4999C22.3958 12.4999 22.8125 12.9166 22.8125 13.5416V21.0416C22.9167 23.2291 21.1458 24.9999 18.9583 24.9999Z" fill="#E0BEA2"/>
<path d="M6.76921 19.7917C6.45671 19.7917 6.24837 19.6875 6.04004 19.4792C5.83171 19.2708 5.72754 18.8542 5.72754 18.5417L6.76921 13.3333C6.76921 13.125 6.87337 12.9167 7.08171 12.8125L19.5817 0.3125C19.9984 -0.104167 20.6234 -0.104167 21.04 0.3125L25.2067 4.47917C25.6234 4.89583 25.6234 5.52083 25.2067 5.9375L12.7067 18.4375C12.6025 18.5417 12.3942 18.6458 12.1859 18.75L6.97754 19.7917H6.76921ZM8.74837 14.0625L8.12337 17.3958L11.4567 16.7708L23.0192 5.20833L20.3109 2.5L8.74837 14.0625Z" fill="#E0BEA2"/>
</g>
<defs>
<clipPath id="clip0_345_851">
<rect width="25" height="25" fill="white"/>
</clipPath>
</defs>
</svg>
